<svg width="74" height="74" viewBox="0 0 74 74" fill="none" xmlns="http://www.w3.org/2000/svg">
<path fill-rule="evenodd" clip-rule="evenodd" d="M52.0917 14.7744C58.2919 14.7744 63.3182 19.8007 63.3182 26.001V41.7179C63.3182 47.9182 58.2919 52.9445 52.0917 52.9445H26.7229C24.4774 55.4558 21.0536 57.9583 15.9982 59.7351C15.6228 59.8671 15.3068 59.2217 15.6092 58.963C17.3373 57.4851 19.0691 55.3337 19.5812 52.7293C14.4336 51.7073 10.5531 47.1658 10.5531 41.7179V26.001C10.5531 19.8007 15.5794 14.7744 21.7797 14.7744H52.0917Z" fill="#337AFF"/>
<ellipse cx="3.92932" cy="3.92927" rx="3.92932" ry="3.92927" transform="matrix(-1 0 0 1 52.0912 30.4883)" fill="white"/>
<ellipse cx="3.92932" cy="3.92927" rx="3.92932" ry="3.92927" transform="matrix(-1 0 0 1 40.8641 30.4883)" fill="white"/>
<ellipse cx="3.92932" cy="3.92927" rx="3.92932" ry="3.92927" transform="matrix(-1 0 0 1 29.6392 30.4883)" fill="white"/>
</svg>
