<svg width="20" height="20" viewBox="0 0 20 20" fill="none" xmlns="http://www.w3.org/2000/svg">
<circle cx="10" cy="10" r="10" fill="#F5F8FF"/>
<path d="M7.63615 12.2702C7.63615 13.524 6.61974 14.5404 5.36593 14.5404C4.11212 14.5404 3.0957 13.524 3.0957 12.2702C3.0957 11.0164 4.11212 10 5.36593 10C6.61974 10 7.63615 11.0164 7.63615 12.2702Z" fill="#FF9C27"/>
<path d="M16.9057 12.2702C16.9057 13.524 15.8893 14.5404 14.6355 14.5404C13.3816 14.5404 12.3652 13.524 12.3652 12.2702C12.3652 11.0164 13.3816 10 14.6355 10C15.8893 10 16.9057 11.0164 16.9057 12.2702Z" fill="#FF9C27"/>
<path d="M15.7147 10.9529C15.7147 13.8459 13.1563 16.191 10.0004 16.191C6.84451 16.191 4.28613 13.8459 4.28613 10.9529C4.28613 8.06002 6.84451 5.71484 10.0004 5.71484C13.1563 5.71484 15.7147 8.06002 15.7147 10.9529Z" fill="#FFBA68"/>
<mask id="mask0_77_33550" style="mask-type:alpha" maskUnits="userSpaceOnUse" x="4" y="5" width="12" height="12">
<path d="M15.7147 10.952C15.7147 13.8449 13.1563 16.1901 10.0004 16.1901C6.84451 16.1901 4.28613 13.8449 4.28613 10.952C4.28613 8.05904 6.84451 5.71387 10.0004 5.71387C13.1563 5.71387 15.7147 8.05904 15.7147 10.952Z" fill="#FFAB49"/>
</mask>
<g mask="url(#mask0_77_33550)">
<path d="M8.02806 13.6426C8.02806 14.8658 7.02951 15.8574 5.79772 15.8574C4.56594 15.8574 3.56738 14.8658 3.56738 13.6426C3.56738 12.4194 4.56594 11.4277 5.79772 11.4277C7.02951 11.4277 8.02806 12.4194 8.02806 13.6426Z" fill="#FF9A24"/>
<path d="M16.3415 13.6426C16.3415 14.8658 15.343 15.8574 14.1112 15.8574C12.8794 15.8574 11.8809 14.8658 11.8809 13.6426C11.8809 12.4194 12.8794 11.4277 14.1112 11.4277C15.343 11.4277 16.3415 12.4194 16.3415 13.6426Z" fill="#FF9A24"/>
</g>
<path d="M10.2389 12.619C10.2389 12.7505 10.1323 12.857 10.0008 12.857C9.86929 12.857 9.7627 12.7505 9.7627 12.619C9.7627 12.4875 9.86929 12.3809 10.0008 12.3809C10.1323 12.3809 10.2389 12.4875 10.2389 12.619Z" fill="black"/>
<path d="M8.8098 11.6895C8.8098 11.9397 8.59661 12.1426 8.33361 12.1426C8.07062 12.1426 7.85742 11.9397 7.85742 11.6895C7.85742 11.4392 8.07062 11.2363 8.33361 11.2363C8.59661 11.2363 8.8098 11.4392 8.8098 11.6895Z" fill="black"/>
<path fill-rule="evenodd" clip-rule="evenodd" d="M8.57712 11.0418C8.62375 11.1245 8.5911 11.2275 8.5042 11.2719C8.45696 11.296 8.38538 11.3454 8.33445 11.407C8.28386 11.4682 8.26993 11.5199 8.28124 11.5649C8.30417 11.6562 8.245 11.7479 8.14908 11.7697C8.05316 11.7915 7.95682 11.7352 7.93388 11.6439C7.88768 11.46 7.96584 11.3032 8.05372 11.1969C8.14127 11.0909 8.25455 11.0136 8.33534 10.9724C8.42225 10.928 8.53049 10.9591 8.57712 11.0418Z" fill="black"/>
<path d="M12.1428 11.6895C12.1428 11.9397 11.9296 12.1426 11.6666 12.1426C11.4036 12.1426 11.1904 11.9397 11.1904 11.6895C11.1904 11.4392 11.4036 11.2363 11.6666 11.2363C11.9296 11.2363 12.1428 11.4392 12.1428 11.6895Z" fill="black"/>
<path fill-rule="evenodd" clip-rule="evenodd" d="M11.9101 11.0418C11.9568 11.1245 11.9241 11.2275 11.8372 11.2719C11.79 11.296 11.7184 11.3454 11.6675 11.407C11.6169 11.4682 11.6029 11.5199 11.6142 11.5649C11.6372 11.6562 11.578 11.7479 11.4821 11.7697C11.3862 11.7915 11.2898 11.7352 11.2669 11.6439C11.2207 11.46 11.2989 11.3032 11.3867 11.1969C11.4743 11.0909 11.5876 11.0136 11.6684 10.9724C11.7553 10.928 11.8635 10.9591 11.9101 11.0418Z" fill="black"/>
<path fill-rule="evenodd" clip-rule="evenodd" d="M8.69028 13.4012C9.54376 13.6671 10.4579 13.6671 11.3114 13.4012C11.403 13.3726 11.4515 13.2829 11.4196 13.2009C11.3877 13.1188 11.2876 13.0754 11.196 13.1039C10.4177 13.3464 9.58401 13.3464 8.8057 13.1039C8.71406 13.0754 8.61394 13.1188 8.58206 13.2009C8.55019 13.2829 8.59864 13.3726 8.69028 13.4012Z" fill="#A75A00"/>
<path fill-rule="evenodd" clip-rule="evenodd" d="M8.11601 10.4118C7.94504 10.4373 7.80676 10.5261 7.73651 10.595C7.6708 10.6595 7.56528 10.6585 7.50082 10.5928C7.43636 10.5271 7.43737 10.4215 7.50308 10.3571C7.61598 10.2463 7.81652 10.1195 8.0668 10.0821C8.3246 10.0436 8.62447 10.1021 8.91753 10.3485C8.98798 10.4077 8.99707 10.5129 8.93783 10.5833C8.87859 10.6538 8.77346 10.6628 8.703 10.6036C8.48324 10.4188 8.27946 10.3874 8.11601 10.4118Z" fill="#905A09"/>
<path fill-rule="evenodd" clip-rule="evenodd" d="M11.6873 10.4118C11.5163 10.4373 11.378 10.5261 11.3078 10.595C11.2421 10.6595 11.1366 10.6585 11.0721 10.5928C11.0076 10.5271 11.0087 10.4215 11.0744 10.3571C11.1873 10.2463 11.3878 10.1195 11.6381 10.0821C11.8959 10.0436 12.1958 10.1021 12.4888 10.3485C12.5593 10.4077 12.5684 10.5129 12.5091 10.5833C12.4499 10.6538 12.3447 10.6628 12.2743 10.6036C12.0545 10.4188 11.8507 10.3874 11.6873 10.4118Z" fill="#905A09"/>
<path d="M7.71262 4.42654C9.43044 5.11017 10.6031 3.13161 13.6877 5.47078C14.5256 5.36852 13.6877 2.39303 14.9161 4.09679C15.8987 5.4598 15.0349 5.82466 14.5138 5.71474C16.58 7.08874 17.7527 11.5405 15.2511 11.1317C12.2168 10.6358 13.3525 6.67992 12.5707 7.6692C11.7889 8.65849 5.53591 11.644 4.25019 11.1317C3.34514 10.7711 3.34514 9.50699 4.25019 9.15313C4.13857 9.02489 3.52384 9.12227 3.34514 8.2429C3.16645 7.36354 5.1811 5.83719 6.03735 5.47078C6.03735 4.53646 5.89596 3.70357 7.71262 4.42654Z" fill="black"/>
</svg>
